<?xml version="1.0"?>
<svg xmlns="http://www.w3.org/2000/svg" xmlns:xlink="http://www.w3.org/1999/xlink" xmlns:svgjs="http://svgjs.com/svgjs" version="1.1" width="512" height="512" x="0" y="0" viewBox="0 0 511 512" style="enable-background:new 0 0 512 512" xml:space="preserve" class=""><g><path xmlns="http://www.w3.org/2000/svg" d="m366.933594 62.871094c-40.542969-40.542969-94.449219-62.871094-151.78125-62.871094-57.335938 0-111.242188 22.328125-151.785156 62.871094-40.539063 40.539062-62.867188 94.445312-62.867188 151.78125 0 57.332031 22.328125 111.238281 62.867188 151.777344l141.179687 141.175781c2.929687 2.929687 6.769531 4.394531 10.605469 4.394531 3.839844 0 7.679687-1.464844 10.609375-4.394531l141.171875-141.171875c40.542968-40.542969 62.871094-94.449219 62.871094-151.78125-.003907-57.335938-22.328126-111.238282-62.871094-151.78125zm-21.214844 282.347656-130.566406 130.566406-130.570313-130.566406c-71.992187-71.996094-71.992187-189.140625 0-261.136719 34.878907-34.875 81.246094-54.082031 130.570313-54.082031 49.320312 0 95.691406 19.207031 130.566406 54.082031 71.996094 71.996094 71.996094 189.144531 0 261.136719zm0 0" fill="#ffffff" data-original="#000000" style="" class=""/><path xmlns="http://www.w3.org/2000/svg" d="m215.152344 80.332031c-74.0625 0-134.316406 60.257813-134.316406 134.316407 0 41.660156 19.0625 78.945312 48.921874 103.605468.605469.582032 1.265626 1.109375 1.976563 1.59375 22.929687 18.21875 51.921875 29.121094 83.417969 29.121094 31.492187 0 60.488281-10.902344 83.414062-29.121094.710938-.480468 1.375-1.015625 1.984375-1.597656 29.855469-24.65625 48.917969-61.941406 48.917969-103.601562-.003906-74.058594-60.257812-134.316407-134.316406-134.316407zm-56.320313 222.089844c11.273438-20.09375 32.730469-32.996094 56.320313-32.996094 23.585937 0 45.042968 12.902344 56.316406 32.996094-16.253906 10.464844-35.589844 16.546875-56.316406 16.546875-20.730469 0-40.066406-6.082031-56.320313-16.546875zm31.546875-87.773437c0-13.65625 11.113282-24.769532 24.773438-24.769532 13.65625 0 24.769531 11.113282 24.769531 24.769532 0 13.660156-11.109375 24.773437-24.769531 24.773437-13.660156.003906-24.773438-11.109375-24.773438-24.773437zm104.023438 67.75c-9.226563-14.148438-22.050782-25.496094-36.96875-32.96875 7.796875-9.464844 12.488281-21.585938 12.488281-34.78125 0-30.199219-24.570313-54.769532-54.773437-54.769532-30.199219 0-54.769532 24.570313-54.769532 54.769532 0 13.195312 4.6875 25.316406 12.488282 34.78125-14.917969 7.472656-27.742188 18.820312-36.96875 32.96875-15.617188-18.238282-25.066407-41.910157-25.066407-67.75 0-57.519532 46.796875-104.316407 104.316407-104.316407 57.519531 0 104.316406 46.796875 104.316406 104.316407 0 25.839843-9.445313 49.511718-25.0625 67.75zm0 0" fill="#ffffff" data-original="#000000" style="" class=""/></g></svg>
